<svg width="590" height="104" viewBox="0 0 590 104" fill="none" xmlns="http://www.w3.org/2000/svg">
<g clip-path="url(#clip0_3276_148)">
<path d="M72.28 103.16C69.52 103.16 66.53 102.25 63.58 99.9L63.25 99.6L43.68 80.12L24.19 99.56L23.94 99.74C15.26 106.07 6.92002 101.32 3.39002 96.54C-2.72998 88.77 1.48002 80.89 4.70002 77.65C12.83 68.03 19.28 65.81 21.24 65.33C34.66 60.24 45.75 70.89 46.22 71.35L68.72 93.75C73.06 97.05 76.34 93.59 76.96 92.86L77.27 92.53C81.52 88.51 78.12 83.86 77.2 82.75L53.59 59.14L76.88 35.85C78.74 34.02 79.08 32.34 79.08 32.33L79.15 31.84C80.25 26.69 75.5 24.25 74.95 23.98L74.81 23.91C70.84 21.87 66.64 26.33 66.46 26.52L66.34 26.65L48.53 44.46C35.15 58.84 20.88 53.54 20.28 53.3L19.92 53.14C9.03002 47.64 2.75002 39.39 2.49002 39.04L2.22002 38.64C-2.55998 30.35 1.39002 23.24 4.32002 20.43C7.84002 16.37 11.65 15.42 14.25 15.36C20.93 15.2 26.08 20.3 26.87 21.13L43.7 37.96L60.61 21.05C63.75 17.63 70.93 12.98 78.39 16.76C82.24 18.56 88.86 24.27 87 33.36C86.83 34.51 86.03 38.06 82.5 41.54L64.89 59.15L83.12 77.4C87.08 81.88 90.25 91.08 82.9 98.2C80.67 100.75 76.76 103.16 72.26 103.16H72.28ZM23.06 73.13C22.47 73.29 17.54 74.81 10.69 82.95L10.41 83.25C9.47002 84.2 6.55002 87.69 9.69002 91.63L9.79002 91.76C10.72 92.99 14.16 96.77 18.99 93.45L37.65 74.83C34.57 72.89 29.41 70.71 23.86 72.9L23.34 73.11L23.05 73.13H23.06ZM23.31 45.9C24.32 46.23 30.53 47.92 37.7 43.26L21.11 26.66C20.21 25.72 17.25 23.29 14.46 23.36C12.99 23.41 11.63 24.2 10.29 25.79L9.91002 26.19C9.35002 26.73 6.52002 29.79 9.04002 34.43C9.94002 35.54 15.1 41.69 23.32 45.9H23.31Z" fill="url(#paint0_linear_3276_148)"/>
<path d="M164.32 15.43V16.69L145.39 38.72L164.32 61.55V62.81H153.76L139.53 45.6L125.3 62.81H114.74V61.55L133.56 38.72L114.74 16.69V15.43H125.3L139.53 31.84L153.76 15.43H164.32ZM114.75 16.69V15.43H113.59L114.75 16.69ZM165.48 15.43H164.32V16.69L165.48 15.43ZM113.59 62.82H114.75V61.56L113.59 62.82ZM164.32 61.56V62.82H165.48L164.32 61.56Z" fill="#081120"/>
<path d="M222.07 27.88H213.12V26.04C213.12 25.01 212.32 24.2 211.28 24.2H184.09C183.06 24.2 182.25 25 182.25 26.04V32.92C182.25 33.95 183.05 34.76 184.09 34.76H211.28C217.25 34.76 221.95 39.46 221.95 45.32V52.2C221.95 58.05 217.13 62.76 211.28 62.76H184.09C178.12 62.76 173.42 58.06 173.42 52.2V50.36H182.37V52.2C182.37 53.23 183.17 54.04 184.21 54.04H211.4C212.43 54.04 213.24 53.24 213.24 52.2V45.32C213.24 44.29 212.44 43.48 211.4 43.48H184.21C178.24 43.48 173.54 38.78 173.54 32.92V26.04C173.54 20.19 178.36 15.48 184.21 15.48H211.4C217.37 15.48 222.07 20.18 222.07 26.04V27.88Z" fill="#081120"/>
<path d="M278.26 26.16V52.21C278.26 58.04 273.53 62.77 267.7 62.77H238.56V76.85H229.61V15.49H267.47C273.44 15.49 278.14 20.19 278.14 26.05L278.25 26.16H278.26ZM269.43 26.16C269.43 25.15 268.61 24.32 267.59 24.32H240.4C239.39 24.32 238.56 25.14 238.56 26.16V52.21C238.56 53.22 239.38 54.05 240.4 54.05H267.59C268.6 54.05 269.43 53.23 269.43 52.21V26.16Z" fill="#081120"/>
<path d="M334.45 26.16V62.76H296.59C290.62 62.76 285.92 58.06 285.92 52.2V34.76H325.62V26.15C325.62 25.12 324.82 24.31 323.78 24.31H285.92V15.48H323.78C329.75 15.48 334.45 20.18 334.45 26.04V26.15V26.16ZM325.5 43.6H294.64V52.21C294.64 53.24 295.44 54.05 296.48 54.05H325.51V43.61L325.5 43.6Z" fill="#081120"/>
<path d="M379.63 15.49V24.32H352.9C351.87 24.32 351.06 25.12 351.06 26.16V62.76H342.11V26.16C342.11 20.31 346.93 15.6 352.78 15.6H379.51L379.62 15.49H379.63Z" fill="#081120"/>
<path d="M435.37 15.49V16.75L414.83 39.12L435.37 61.49V62.75H424.81L406.91 43.47H396.24V62.75H387.29V0H396.24V34.65H406.91L424.81 15.37H435.37V15.48V15.49Z" fill="#081120"/>
<path d="M491.65 27.88H482.7V26.04C482.7 25.01 481.9 24.2 480.86 24.2H453.67C452.64 24.2 451.83 25 451.83 26.04V32.92C451.83 33.95 452.63 34.76 453.67 34.76H480.86C486.83 34.76 491.53 39.46 491.53 45.32V52.2C491.53 58.05 486.71 62.76 480.86 62.76H453.67C447.7 62.76 443 58.06 443 52.2V50.36H451.95V52.2C451.95 53.23 452.75 54.04 453.79 54.04H480.98C482.01 54.04 482.82 53.24 482.82 52.2V45.32C482.82 44.29 482.02 43.48 480.98 43.48H453.79C447.82 43.48 443.12 38.78 443.12 32.92V26.04C443.12 20.19 447.94 15.48 453.79 15.48H480.98C486.95 15.48 491.65 20.18 491.65 26.04V27.88Z" fill="#081120"/>
<path d="M571.95 26.16V62.76H534.09C528.12 62.76 523.42 58.06 523.42 52.2V34.76H563.12V26.15C563.12 25.12 562.32 24.31 561.28 24.31H523.42V15.48H561.28C567.25 15.48 571.95 20.18 571.95 26.04V26.15V26.16ZM563.12 43.6H532.26V52.21C532.26 53.24 533.06 54.05 534.1 54.05H563.13V43.61L563.12 43.6Z" fill="#081120"/>
<path d="M588.44 0.110001V8.94H579.49V0.110001H588.44ZM579.61 15.49H588.56V62.76H579.61V15.49Z" fill="#081120"/>
<path d="M515.29 54.27C511.63 53.31 508.75 50.42 507.77 46.75C507.68 46.37 507.17 46.37 507.07 46.75C506.09 50.41 503.22 53.29 499.55 54.27C499.17 54.36 499.17 54.87 499.55 54.97C503.21 55.95 506.09 58.82 507.07 62.49C507.16 62.87 507.67 62.87 507.77 62.49C508.75 58.83 511.62 55.95 515.29 54.97C515.67 54.88 515.67 54.37 515.29 54.27Z" fill="#081120"/>
<path d="M113.78 102.06L118.4 89.5H120.17L124.81 102.06H123.09L121.75 98.23H116.74L115.39 102.06H113.77H113.78ZM118.7 92.73L117.21 96.95H121.32L119.88 92.73L119.32 90.96H119.28C119.06 91.66 118.86 92.25 118.7 92.73Z" fill="#081120"/>
<path d="M134.83 102.31C133.06 102.31 131.64 101.7 130.56 100.48C129.48 99.26 128.94 97.69 128.94 95.77C128.94 93.85 129.48 92.31 130.55 91.07C131.62 89.83 133.07 89.22 134.9 89.22C136.33 89.22 137.48 89.59 138.36 90.33C139.24 91.07 139.77 92.03 139.94 93.23H138.39C138.24 92.43 137.85 91.8 137.24 91.31C136.63 90.82 135.83 90.59 134.86 90.59C133.51 90.59 132.46 91.07 131.7 92.04C130.94 93.01 130.56 94.25 130.56 95.77C130.56 97.29 130.95 98.56 131.75 99.5C132.54 100.44 133.59 100.92 134.89 100.92C136.01 100.92 136.88 100.59 137.5 99.94C138.12 99.28 138.46 98.46 138.54 97.46H140.1C140.09 98.08 139.94 98.72 139.67 99.37C139.39 100.02 139.03 100.56 138.59 100.99C137.69 101.87 136.43 102.31 134.83 102.31Z" fill="#081120"/>
<path d="M151.15 102.31C149.38 102.31 147.96 101.7 146.88 100.48C145.8 99.26 145.26 97.69 145.26 95.77C145.26 93.85 145.8 92.31 146.87 91.07C147.94 89.83 149.39 89.22 151.22 89.22C152.65 89.22 153.8 89.59 154.68 90.33C155.56 91.07 156.09 92.03 156.26 93.23H154.71C154.56 92.43 154.17 91.8 153.56 91.31C152.95 90.82 152.15 90.59 151.18 90.59C149.83 90.59 148.78 91.07 148.02 92.04C147.26 93.01 146.88 94.25 146.88 95.77C146.88 97.29 147.27 98.56 148.07 99.5C148.86 100.44 149.91 100.92 151.21 100.92C152.33 100.92 153.2 100.59 153.82 99.94C154.44 99.28 154.78 98.46 154.86 97.46H156.42C156.41 98.08 156.26 98.72 155.99 99.37C155.71 100.02 155.35 100.56 154.91 100.99C154.01 101.87 152.75 102.31 151.15 102.31Z" fill="#081120"/>
<path d="M172.21 100.48C171.09 101.71 169.6 102.32 167.74 102.32C165.88 102.32 164.39 101.7 163.27 100.48C162.15 99.25 161.59 97.68 161.59 95.77C161.59 93.86 162.15 92.29 163.27 91.06C164.39 89.83 165.88 89.22 167.74 89.22C169.6 89.22 171.09 89.84 172.21 91.06C173.33 92.29 173.89 93.86 173.89 95.77C173.89 97.68 173.33 99.25 172.21 100.48ZM164.4 99.5C165.2 100.46 166.31 100.94 167.74 100.94C169.17 100.94 170.28 100.46 171.08 99.5C171.88 98.54 172.28 97.3 172.28 95.78C172.28 94.26 171.88 93.01 171.08 92.05C170.28 91.08 169.17 90.6 167.74 90.6C166.31 90.6 165.2 91.08 164.4 92.05C163.6 93.02 163.21 94.26 163.21 95.78C163.21 97.3 163.61 98.54 164.4 99.5Z" fill="#081120"/>
<path d="M184.23 102.25C182.77 102.25 181.6 101.9 180.73 101.21C179.86 100.52 179.42 99.45 179.42 98V89.5H181V97.84C181 99.88 182.09 100.9 184.29 100.9C186.49 100.9 187.47 99.88 187.47 97.84V89.5H189.05V98C189.05 99.44 188.61 100.51 187.72 101.21C186.84 101.91 185.67 102.26 184.23 102.26V102.25Z" fill="#081120"/>
<path d="M195.05 102.06V89.5H196.72L202.45 98.23L203.36 99.85H203.4V89.5H204.88V102.06H203.26L197.5 93.31L196.57 91.75H196.53V102.06H195.05Z" fill="#081120"/>
<path d="M210.3 90.89V89.5H220.24V90.89H216.06V102.06H214.48V90.89H210.3Z" fill="#081120"/>
<path d="M223.09 102.06L227.71 89.5H229.48L234.12 102.06H232.4L231.06 98.23H226.05L224.7 102.06H223.08H223.09ZM228.01 92.73L226.52 96.95H230.63L229.19 92.73L228.63 90.96H228.59C228.37 91.66 228.17 92.25 228.01 92.73Z" fill="#081120"/>
<path d="M239.34 102.06V89.5H244.66C245.98 89.5 246.99 89.86 247.68 90.59C248.22 91.15 248.49 91.87 248.49 92.73C248.49 94.06 247.82 94.94 246.47 95.37V95.42C247.22 95.6 247.83 95.94 248.3 96.46C248.77 96.98 249 97.65 249 98.45C249 99.41 248.7 100.21 248.09 100.86C247.35 101.66 246.3 102.05 244.95 102.05H239.35L239.34 102.06ZM240.92 94.87H244.47C245.23 94.87 245.83 94.69 246.26 94.33C246.69 93.97 246.91 93.46 246.91 92.82C246.91 92.21 246.71 91.73 246.32 91.39C245.93 91.05 245.38 90.87 244.68 90.87H240.92V94.88V94.87ZM240.92 100.63H244.87C245.74 100.63 246.39 100.42 246.84 100C247.22 99.6 247.4 99.12 247.4 98.54C247.4 97.78 247.16 97.2 246.68 96.8C246.2 96.4 245.56 96.2 244.76 96.2H240.91V100.63H240.92Z" fill="#081120"/>
<path d="M254.52 102.06V89.5H256.1V100.6H262.69V102.06H254.52Z" fill="#081120"/>
<path d="M268.12 102.06V89.5H276.99V90.89H269.7V94.86H276.32V96.19H269.7V100.6H277.2V102.06H268.12Z" fill="#081120"/>
<path d="M294.83 102.06V89.5H303.35V90.89H296.41V94.81H302.19V96.14H296.41V102.06H294.83Z" fill="#081120"/>
<path d="M308.85 102.06V89.5H314.72C315.82 89.5 316.71 89.82 317.4 90.45C318.08 91.08 318.43 91.91 318.43 92.95C318.43 94.55 317.7 95.59 316.25 96.06V96.11C316.87 96.33 317.31 96.68 317.58 97.16C317.84 97.63 318 98.35 318.06 99.31C318.18 100.91 318.37 101.81 318.64 102V102.07H316.94C316.81 101.96 316.72 101.74 316.67 101.4C316.62 101.06 316.56 100.35 316.49 99.26C316.43 98.35 316.21 97.7 315.81 97.33C315.42 96.95 314.79 96.77 313.94 96.77H310.44V102.08H308.86L308.85 102.06ZM310.43 90.87V95.47H314.15C315.02 95.47 315.67 95.27 316.12 94.86C316.57 94.45 316.79 93.89 316.79 93.16C316.79 92.38 316.59 91.8 316.19 91.42C315.79 91.04 315.14 90.86 314.24 90.86H310.43V90.87Z" fill="#081120"/>
<path d="M334.35 100.48C333.23 101.71 331.74 102.32 329.88 102.32C328.02 102.32 326.53 101.7 325.41 100.48C324.29 99.25 323.73 97.68 323.73 95.77C323.73 93.86 324.29 92.29 325.41 91.06C326.53 89.83 328.02 89.22 329.88 89.22C331.74 89.22 333.23 89.84 334.35 91.06C335.47 92.29 336.03 93.86 336.03 95.77C336.03 97.68 335.47 99.25 334.35 100.48ZM326.54 99.5C327.34 100.46 328.45 100.94 329.88 100.94C331.31 100.94 332.42 100.46 333.22 99.5C334.02 98.54 334.42 97.3 334.42 95.78C334.42 94.26 334.02 93.01 333.22 92.05C332.42 91.08 331.31 90.6 329.88 90.6C328.45 90.6 327.34 91.08 326.54 92.05C325.74 93.02 325.35 94.26 325.35 95.78C325.35 97.3 325.75 98.54 326.54 99.5Z" fill="#081120"/>
<path d="M341.77 102.06V89.5H343.79L347.87 99.94H347.91L351.95 89.5H354.01V102.06H352.5V91.73H352.46C352.24 92.39 352.05 92.91 351.9 93.31L348.46 102.06H347.25L343.81 93.31L343.25 91.73H343.21V102.06H341.79H341.77Z" fill="#081120"/>
<path d="M372.16 102.06V89.5H373.74V102.06H372.16Z" fill="#081120"/>
<path d="M380 102.06V89.5H384.57C386.41 89.5 387.8 90.07 388.73 91.2C389.67 92.34 390.14 93.88 390.14 95.82C390.14 97.76 389.65 99.28 388.68 100.39C387.71 101.5 386.3 102.06 384.45 102.06H380ZM381.58 100.67H384.39C387.14 100.67 388.52 99.05 388.52 95.82C388.52 92.59 387.18 90.87 384.51 90.87H381.58V100.67Z" fill="#081120"/>
<path d="M395.88 102.06V89.5H404.75V90.89H397.46V94.86H404.08V96.19H397.46V100.6H404.96V102.06H395.88Z" fill="#081120"/>
<path d="M409.85 102.06L414.47 89.5H416.24L420.88 102.06H419.16L417.82 98.23H412.81L411.46 102.06H409.84H409.85ZM414.77 92.73L413.28 96.95H417.39L415.95 92.73L415.39 90.96H415.35C415.13 91.66 414.93 92.25 414.77 92.73Z" fill="#081120"/>
<path d="M437.22 90.89V89.5H447.16V90.89H442.98V102.06H441.4V90.89H437.22Z" fill="#081120"/>
<path d="M461.95 100.48C460.83 101.71 459.34 102.32 457.48 102.32C455.62 102.32 454.13 101.7 453.01 100.48C451.89 99.25 451.33 97.68 451.33 95.77C451.33 93.86 451.89 92.29 453.01 91.06C454.13 89.83 455.62 89.22 457.48 89.22C459.34 89.22 460.83 89.84 461.95 91.06C463.07 92.29 463.63 93.86 463.63 95.77C463.63 97.68 463.07 99.25 461.95 100.48ZM454.14 99.5C454.94 100.46 456.05 100.94 457.48 100.94C458.91 100.94 460.02 100.46 460.82 99.5C461.62 98.54 462.02 97.3 462.02 95.78C462.02 94.26 461.62 93.01 460.82 92.05C460.02 91.08 458.91 90.6 457.48 90.6C456.05 90.6 454.94 91.08 454.14 92.05C453.34 93.02 452.95 94.26 452.95 95.78C452.95 97.3 453.35 98.54 454.14 99.5Z" fill="#081120"/>
<path d="M491.43 100.48C490.31 101.71 488.82 102.32 486.96 102.32C485.1 102.32 483.61 101.7 482.49 100.48C481.37 99.25 480.81 97.68 480.81 95.77C480.81 93.86 481.37 92.29 482.49 91.06C483.61 89.83 485.1 89.22 486.96 89.22C488.82 89.22 490.31 89.84 491.43 91.06C492.55 92.29 493.11 93.86 493.11 95.77C493.11 97.68 492.55 99.25 491.43 100.48ZM483.62 99.5C484.42 100.46 485.53 100.94 486.96 100.94C488.39 100.94 489.5 100.46 490.3 99.5C491.1 98.54 491.5 97.3 491.5 95.78C491.5 94.26 491.1 93.01 490.3 92.05C489.5 91.08 488.39 90.6 486.96 90.6C485.53 90.6 484.42 91.08 483.62 92.05C482.82 93.02 482.43 94.26 482.43 95.78C482.43 97.3 482.83 98.54 483.62 99.5Z" fill="#081120"/>
<path d="M503.45 102.25C501.99 102.25 500.82 101.9 499.95 101.21C499.08 100.52 498.64 99.45 498.64 98V89.5H500.22V97.84C500.22 99.88 501.31 100.9 503.51 100.9C505.71 100.9 506.69 99.88 506.69 97.84V89.5H508.27V98C508.27 99.44 507.83 100.51 506.94 101.21C506.06 101.91 504.89 102.26 503.45 102.26V102.25Z" fill="#081120"/>
<path d="M513.48 90.89V89.5H523.42V90.89H519.24V102.06H517.66V90.89H513.48Z" fill="#081120"/>
<path d="M533.48 102.31C531.71 102.31 530.29 101.7 529.21 100.48C528.13 99.26 527.59 97.69 527.59 95.77C527.59 93.85 528.13 92.31 529.2 91.07C530.27 89.83 531.72 89.22 533.55 89.22C534.98 89.22 536.13 89.59 537.01 90.33C537.89 91.07 538.42 92.03 538.59 93.23H537.04C536.89 92.43 536.5 91.8 535.89 91.31C535.28 90.82 534.48 90.59 533.51 90.59C532.16 90.59 531.11 91.07 530.35 92.04C529.59 93.01 529.21 94.25 529.21 95.77C529.21 97.29 529.6 98.56 530.4 99.5C531.19 100.44 532.24 100.92 533.54 100.92C534.66 100.92 535.53 100.59 536.15 99.94C536.77 99.28 537.11 98.46 537.19 97.46H538.75C538.74 98.08 538.59 98.72 538.32 99.37C538.04 100.02 537.68 100.56 537.24 100.99C536.34 101.87 535.08 102.31 533.48 102.31Z" fill="#081120"/>
<path d="M554.53 100.48C553.41 101.71 551.92 102.32 550.06 102.32C548.2 102.32 546.71 101.7 545.59 100.48C544.47 99.25 543.91 97.68 543.91 95.77C543.91 93.86 544.47 92.29 545.59 91.06C546.71 89.83 548.2 89.22 550.06 89.22C551.92 89.22 553.41 89.84 554.53 91.06C555.65 92.29 556.21 93.86 556.21 95.77C556.21 97.68 555.65 99.25 554.53 100.48ZM546.72 99.5C547.52 100.46 548.63 100.94 550.06 100.94C551.49 100.94 552.6 100.46 553.4 99.5C554.2 98.54 554.6 97.3 554.6 95.78C554.6 94.26 554.2 93.01 553.4 92.05C552.6 91.08 551.49 90.6 550.06 90.6C548.63 90.6 547.52 91.08 546.72 92.05C545.92 93.02 545.53 94.26 545.53 95.78C545.53 97.3 545.93 98.54 546.72 99.5Z" fill="#081120"/>
<path d="M561.95 102.06V89.5H563.97L568.05 99.94H568.09L572.13 89.5H574.19V102.06H572.68V91.73H572.64C572.42 92.39 572.23 92.91 572.08 93.31L568.64 102.06H567.43L563.99 93.31L563.43 91.73H563.39V102.06H561.97H561.95Z" fill="#081120"/>
<path d="M580.4 102.06V89.5H589.27V90.89H581.98V94.86H588.6V96.19H581.98V100.6H589.48V102.06H580.4Z" fill="#081120"/>
</g>
<defs>
<linearGradient id="paint0_linear_3276_148" x1="-0.799984" y1="57.77" x2="88.16" y2="60.39" gradientUnits="userSpaceOnUse">
<stop stop-color="#0F8EFA"/>
<stop offset="0.62" stop-color="#C43333"/>
<stop offset="1" stop-color="#EF6B2A"/>
</linearGradient>
<clipPath id="clip0_3276_148">
<rect width="589.48" height="103.16" fill="white"/>
</clipPath>
</defs>
</svg>
